<svg xmlns="http://www.w3.org/2000/svg" viewBox="0 0 376.72 376.72"><defs><style>.cls-1{fill:#fff;}</style></defs><g id="Layer_2" data-name="Layer 2"><g id="Layer_1-2" data-name="Layer 1"><rect width="376.72" height="376.72" rx="70.82"/><path class="cls-1" d="M261.81,240.21A78.14,78.14,0,0,0,144.23,148V97.82s0,0,0,0V97a16.73,16.73,0,0,0-16.73-16.73h0a4.25,4.25,0,0,0-.86.06,16.63,16.63,0,0,0-15.8,15.8,6.56,6.56,0,0,0,0,.87l0,52.61h0v62.2c0,.66,0,1.31,0,2a73.8,73.8,0,0,0,1.2,12.16v0a78.13,78.13,0,0,0,124.41,48.2l42.11,5Zm-72.12,16.9a45.35,45.35,0,1,1,0-90.7c.81,0,1.63,0,2.45.09A45.32,45.32,0,0,1,235,210.73a9.22,9.22,0,0,1,0,1.06A45.16,45.16,0,0,1,231,230.61l8.7,20.31-22.94-2.73A45.19,45.19,0,0,1,189.69,257.11Z"/></g></g></svg>