<svg xmlns="http://www.w3.org/2000/svg" viewBox="0 0 707.89 220.21"><g id="Layer_2" data-name="Layer 2"><g id="Layer_1-2" data-name="Layer 1"><path d="M167.06,126.55a52.83,52.83,0,0,1,11.12,33.05q0,27.42-18.89,43t-53,15.53H4.49A4.49,4.49,0,0,1,0,213.59V7.84A4.49,4.49,0,0,1,4.49,3.35H103q32.89,0,51.62,14.62t18.74,41.12q0,18.89-9.9,31.52a49.12,49.12,0,0,1-26.35,17.21Q155.95,112.1,167.06,126.55ZM59.7,84.14a4.49,4.49,0,0,0,4.49,4.49H89.85q22.55,0,22.54-18.58,0-19.19-22.54-19.18H64.19a4.49,4.49,0,0,0-4.49,4.49ZM117,151.07q0-9.73-5.94-14.92T94.12,131H64.19a4.49,4.49,0,0,0-4.49,4.49v30a4.5,4.5,0,0,0,4.49,4.5H94.42Q117,170,117,151.07Z"/><path d="M392.65,53.15A103.6,103.6,0,0,0,352.91,14Q327.77,0,297.32,0a112.43,112.43,0,0,0-55.43,14,104.43,104.43,0,0,0-40.06,39.14Q187.05,78.28,187.06,110t14.77,56.81a105.53,105.53,0,0,0,40.06,39.29,115.57,115.57,0,0,0,110.86,0,104.34,104.34,0,0,0,39.9-39.29q14.63-25.12,14.62-56.81T392.65,53.15ZM327.07,155.73q-12,9.06-29.75,9.05-21.06,0-33.8-12.23a55,55,0,1,1,63.55,3.18Z"/><path d="M707.78,10l-49.89,203.3a4,4,0,0,1-3.85,3H588.12a4,4,0,0,1-3.88-3.1L555.88,86.9l-29,126.35a4,4,0,0,1-3.87,3.08H457.13a4,4,0,0,1-3.86-3L404,10a4,4,0,0,1,3.86-4.9h55.12a4,4,0,0,1,3.91,3.3l24,141.12L523.41,8.18a4,4,0,0,1,3.87-3.08h58.08a4,4,0,0,1,3.87,3.09l31.66,140.13L644.9,8.4a4,4,0,0,1,3.91-3.3h55.11A4,4,0,0,1,707.78,10Z"/></g></g></svg>