<?xml version="1.0" standalone="no"?>
<!DOCTYPE svg PUBLIC "-//W3C//DTD SVG 20010904//EN"
 "http://www.w3.org/TR/2001/REC-SVG-20010904/DTD/svg10.dtd">
<svg version="1.0" xmlns="http://www.w3.org/2000/svg"
 width="754.000000pt" height="754.000000pt" viewBox="0 0 754.000000 754.000000"
 preserveAspectRatio="xMidYMid meet">

<g transform="translate(0.000000,754.000000) scale(0.100000,-0.100000)"
fill="#000000" stroke="none">
<path d="M1275 7533 c-342 -44 -621 -179 -855 -413 -242 -240 -379 -535 -410
-881 -8 -89 -10 -803 -8 -2554 5 -2721 -2 -2476 78 -2716 45 -135 82 -212 155
-324 208 -319 523 -532 908 -617 l102 -23 2525 0 2525 0 101 22 c307 68 538
196 747 412 196 204 313 426 374 711 17 81 18 210 18 2620 0 2837 7 2576 -71
2810 -170 509 -632 884 -1174 950 -80 9 -4941 13 -5015 3z m1399 -1621 c67
-23 156 -106 187 -174 l24 -53 3 -547 c1 -302 5 -548 8 -548 3 0 43 23 91 51
633 381 1474 249 1967 -308 367 -416 488 -995 318 -1518 l-28 -84 167 -388
c92 -213 166 -389 165 -390 0 0 -190 21 -421 49 l-420 50 -84 -57 c-169 -113
-354 -190 -571 -236 -153 -33 -427 -33 -587 -1 -424 85 -776 319 -1014 676
-107 159 -182 340 -230 551 l-23 100 -3 1286 -4 1287 22 58 c27 71 101 153
167 185 84 39 171 43 266 11z"/>
<path d="M3685 4200 c-386 -54 -693 -338 -772 -715 -22 -104 -19 -284 6 -390
69 -287 279 -529 553 -635 261 -101 575 -73 802 73 l66 43 223 -27 c122 -14
224 -25 226 -23 2 2 -34 91 -80 199 l-85 196 36 102 c34 101 35 104 35 272 0
192 -10 243 -75 381 -120 259 -330 434 -603 503 -87 23 -249 33 -332 21z"/>
</g>
</svg>
