<?xml version="1.0" standalone="no"?>
<!DOCTYPE svg PUBLIC "-//W3C//DTD SVG 20010904//EN"
 "http://www.w3.org/TR/2001/REC-SVG-20010904/DTD/svg10.dtd">
<svg version="1.0" xmlns="http://www.w3.org/2000/svg"
 width="1417.000000pt" height="441.000000pt" viewBox="0 0 1417.000000 441.000000"
 preserveAspectRatio="xMidYMid meet">

<g transform="translate(0.000000,441.000000) scale(0.100000,-0.100000)"
fill="#000000" stroke="none">
<path d="M5770 4404 c-468 -43 -875 -201 -1220 -475 -103 -81 -284 -266 -362
-369 -242 -320 -387 -697 -429 -1115 -16 -164 -6 -474 20 -630 121 -715 553
-1289 1203 -1600 192 -91 394 -153 633 -192 154 -25 523 -25 685 1 237 37 438
100 655 205 664 322 1089 928 1187 1691 20 155 14 480 -11 646 -71 475 -277
888 -602 1213 -323 324 -759 539 -1229 606 -110 16 -436 27 -530 19z m410
-1109 c107 -22 163 -41 263 -91 259 -127 464 -358 557 -628 73 -215 74 -497 0
-711 -27 -80 -96 -211 -148 -285 -96 -135 -277 -287 -439 -369 -256 -128 -657
-129 -917 -1 -143 69 -331 232 -429 372 -254 358 -272 834 -45 1208 170 280
469 476 793 519 92 13 271 6 365 -14z"/>
<path d="M55 4328 c-11 -6 -25 -19 -32 -27 -10 -13 -12 -479 -13 -2108 l0
-2092 24 -28 24 -28 1054 -3 c1243 -4 1340 1 1602 73 232 63 391 151 543 298
196 190 290 400 312 697 26 331 -78 632 -292 852 -138 141 -248 204 -497 285
-8 3 19 17 60 32 188 67 361 198 470 356 212 308 224 818 26 1150 -48 82 -133
180 -206 240 -178 145 -377 232 -665 287 -108 21 -135 22 -1250 25 -858 2
-1145 0 -1160 -9z m1861 -949 c155 -21 248 -79 301 -187 26 -54 28 -65 28
-187 0 -122 -2 -133 -27 -180 -46 -88 -118 -140 -235 -170 -45 -12 -127 -15
-392 -15 -330 0 -335 0 -358 22 l-23 21 0 327 c0 342 0 344 45 368 27 15 557
16 661 1z m149 -1614 c157 -41 253 -148 275 -308 26 -182 -39 -331 -172 -396
-93 -44 -158 -51 -546 -51 l-363 0 -24 25 -25 24 0 337 c0 333 0 338 22 361
l21 23 377 0 c306 0 387 -3 435 -15z"/>
<path d="M8130 4297 c-62 -31 -94 118 450 -2123 424 -1749 502 -2062 521
-2076 20 -17 69 -18 709 -18 648 0 689 1 710 18 26 21 1 -82 351 1444 139 609
255 1106 256 1104 2 -2 131 -572 287 -1267 247 -1099 287 -1266 306 -1281 21
-17 64 -18 707 -18 447 0 691 4 703 10 11 6 24 18 29 28 5 9 235 939 512 2066
467 1907 501 2051 488 2075 -29 52 -22 51 -636 48 -562 -2 -573 -2 -593 -22
-18 -18 -54 -214 -260 -1420 -133 -769 -242 -1400 -243 -1401 -2 -2 -144 625
-317 1393 -254 1124 -319 1402 -337 1422 l-21 26 -616 0 c-602 0 -616 0 -635
-20 -16 -16 -88 -316 -341 -1415 -176 -767 -324 -1403 -328 -1413 -4 -11 -105
555 -246 1385 -139 819 -244 1413 -253 1426 -8 13 -25 27 -39 32 -41 16 -1133
13 -1164 -3z"/>
</g>
</svg>
