<?xml version="1.0" standalone="no"?>
<!DOCTYPE svg PUBLIC "-//W3C//DTD SVG 20010904//EN"
 "http://www.w3.org/TR/2001/REC-SVG-20010904/DTD/svg10.dtd">
<svg version="1.0" xmlns="http://www.w3.org/2000/svg"
 width="512.000000pt" height="512.000000pt" viewBox="0 0 512.000000 512.000000"
 preserveAspectRatio="xMidYMid meet">

<g transform="translate(0.000000,512.000000) scale(0.100000,-0.100000)"
fill="#000000" stroke="none">
<path d="M0 2560 l0 -2560 2560 0 2560 0 0 2560 0 2560 -2560 0 -2560 0 0
-2560z m1818 1454 c49 -20 100 -70 123 -119 17 -37 19 -71 19 -407 0 -203 2
-368 5 -368 3 0 40 20 83 45 93 54 257 109 371 126 254 36 540 -32 754 -180
88 -61 217 -192 277 -280 174 -259 227 -611 134 -901 l-24 -75 110 -257 c61
-141 110 -260 110 -265 0 -5 -128 6 -284 25 l-283 34 -49 -35 c-99 -71 -261
-137 -409 -168 -87 -19 -303 -16 -400 5 -218 48 -371 132 -535 296 -129 129
-191 222 -246 368 -70 188 -67 145 -71 1095 -4 976 -7 937 71 1013 23 22 58
45 77 51 50 16 125 15 167 -3z"/>
<path d="M2489 2850 c-223 -35 -415 -193 -489 -404 -63 -177 -37 -387 65 -541
83 -124 244 -236 383 -264 139 -29 314 -1 435 69 l67 39 148 -18 c81 -10 148
-17 150 -16 2 2 -22 62 -53 134 l-56 131 23 73 c19 60 23 93 22 197 0 109 -4
134 -26 192 -38 101 -85 173 -161 244 -135 128 -331 191 -508 164z"/>
</g>
</svg>
