<!-- <svg xmlns="http://www.w3.org/2000/svg" xmlns:xlink="http://www.w3.org/1999/xlink" viewBox="0 0 24 24"><defs><style>.cls-1{fill:url(#linear-gradient);}.cls-2{fill:#fff;}</style><linearGradient id="linear-gradient" x1="0.87" y1="0.51" x2="22.85" y2="23.2" gradientUnits="userSpaceOnUse"><stop offset="0" stop-color="#390099"/><stop offset="1" stop-color="#8816ff"/></linearGradient></defs><g id="Layer_2" data-name="Layer 2"><g id="Layer_1-2" data-name="Layer 1"><rect class="cls-1" width="24" height="24"/><path class="cls-2" d="M16.28,12.4v2.32A4.28,4.28,0,0,1,14,18.5h0a4.33,4.33,0,0,1-4.53-.28,4.33,4.33,0,0,1-1.52-2,4,4,0,0,1-.25-1,2.71,2.71,0,0,1,0-.29V6.15a1,1,0,0,1,.06-.36A1.14,1.14,0,0,1,8.88,5a1.16,1.16,0,0,1,.82.34,1,1,0,0,1,.28.46A1.17,1.17,0,0,1,10,6a.81.81,0,0,1,0,.16v4h0a.74.74,0,0,1,.12-.13l.13-.1a1.41,1.41,0,0,1,.78-.24,1.28,1.28,0,0,1,1.27,1,1.28,1.28,0,0,1,.79-.27,1.51,1.51,0,0,1,.48.09h0a1.36,1.36,0,0,1,.81.95,1.3,1.3,0,0,1,.6-.15,1.27,1.27,0,0,1,1.18.81v.07a.08.08,0,0,1,0,0A.78.78,0,0,1,16.28,12.4Z"/></g></g></svg> -->

<?xml version="1.0" standalone="no"?>
<!DOCTYPE svg PUBLIC "-//W3C//DTD SVG 20010904//EN"
 "http://www.w3.org/TR/2001/REC-SVG-20010904/DTD/svg10.dtd">
<svg version="1.0" xmlns="http://www.w3.org/2000/svg"
 width="512.000000pt" height="512.000000pt" viewBox="0 0 512.000000 512.000000"
 preserveAspectRatio="xMidYMid meet">

<g transform="translate(0.000000,512.000000) scale(0.100000,-0.100000)"
fill="#000000" stroke="none">
<path d="M0 2560 l0 -2560 2560 0 2560 0 0 2560 0 2560 -2560 0 -2560 0 0
-2560z m1818 1454 c49 -20 100 -70 123 -119 17 -37 19 -71 19 -407 0 -203 2
-368 5 -368 3 0 40 20 83 45 93 54 257 109 371 126 254 36 540 -32 754 -180
88 -61 217 -192 277 -280 174 -259 227 -611 134 -901 l-24 -75 110 -257 c61
-141 110 -260 110 -265 0 -5 -128 6 -284 25 l-283 34 -49 -35 c-99 -71 -261
-137 -409 -168 -87 -19 -303 -16 -400 5 -218 48 -371 132 -535 296 -129 129
-191 222 -246 368 -70 188 -67 145 -71 1095 -4 976 -7 937 71 1013 23 22 58
45 77 51 50 16 125 15 167 -3z"/>
<path d="M2489 2850 c-223 -35 -415 -193 -489 -404 -63 -177 -37 -387 65 -541
83 -124 244 -236 383 -264 139 -29 314 -1 435 69 l67 39 148 -18 c81 -10 148
-17 150 -16 2 2 -22 62 -53 134 l-56 131 23 73 c19 60 23 93 22 197 0 109 -4
134 -26 192 -38 101 -85 173 -161 244 -135 128 -331 191 -508 164z"/>
</g>
</svg>