<svg xmlns="http://www.w3.org/2000/svg" viewBox="0 0 681.68 328.69"><defs><style>.cls-1{fill:#390099;}.cls-2{fill:#ff8431;}</style></defs><g id="Layer_2" data-name="Layer 2"><g id="Layer_1-2" data-name="Layer 1"><path class="cls-1" d="M54.12,221.35v1.41a7.15,7.15,0,0,0-.08,1C54,223,54,222.16,54.12,221.35Z"/><path class="cls-1" d="M54.12,230.29v1.4c-.08-.8-.08-1.65-.08-2.44A7.28,7.28,0,0,0,54.12,230.29Z"/><path class="cls-1" d="M54.12,221.35v1.41a7.15,7.15,0,0,0-.08,1C54,223,54,222.16,54.12,221.35Z"/><path class="cls-1" d="M54.12,230.29v1.4c-.08-.8-.08-1.65-.08-2.44A7.28,7.28,0,0,0,54.12,230.29Z"/><path class="cls-1" d="M54.12,221.35v1.41a7.15,7.15,0,0,0-.08,1C54,223,54,222.16,54.12,221.35Z"/><path class="cls-1" d="M54.12,230.29v1.4c-.08-.8-.08-1.65-.08-2.44A7.28,7.28,0,0,0,54.12,230.29Z"/><path class="cls-1" d="M311.76,131.12h-1.2a99.41,99.41,0,1,0,1.2,0Zm0,143.77a45,45,0,0,1-36.92-70.7A45.81,45.81,0,0,1,280,198a44.86,44.86,0,0,1,31.2-13.12h.56a45,45,0,1,1,0,90Z"/><path class="cls-1" d="M614.51,226.47v75.22a27,27,0,0,1-27,27h-.11a27,27,0,0,1-27-27v-68c0-22.74-17.83-42-40.56-42.59a41.74,41.74,0,0,0-42.92,41.72v68.85a27,27,0,0,1-27,27h0a27,27,0,0,1-27-27V137.1h1.43V137h43.08a9.49,9.49,0,0,1,9.49,9.49h0a95.43,95.43,0,0,1,40.25-9.38h1.18a96,96,0,0,1,42,9.63,92.56,92.56,0,0,1,9.89,5.52A96.8,96.8,0,0,1,605,191.1,95.71,95.71,0,0,1,614.51,226.47Z"/><path class="cls-1" d="M158.06,157c0,.59,0,1.17-.05,1.76v-3.52C158,155.83,158.06,156.41,158.06,157Z"/><path class="cls-1" d="M200,168.63c-.08-.3-.16-.6-.26-.9s-.22-.71-.35-1.06l-.22-.58a29.5,29.5,0,0,0-41.76-15.47,31.05,31.05,0,0,0-19-22.47l-.1,0a31.07,31.07,0,0,0-29.8,4c-2.91-12.71-15.17-22.33-29.81-22.33a32.35,32.35,0,0,0-18.19,5.53,24.18,24.18,0,0,0-3.09,2.4,25.87,25.87,0,0,0-2.84,3l-.2.24V27.24a23.86,23.86,0,0,0-.28-3.8,24.65,24.65,0,0,0-1-4.66,27.19,27.19,0,0,0-51.71,0A26.78,26.78,0,0,0,0,27.24V233.78a58.69,58.69,0,0,0,.32,6.77,95.49,95.49,0,0,0,5.8,23.24,100.52,100.52,0,0,0,141.81,52.8h0a100.77,100.77,0,0,0,46.56-53.89,99.21,99.21,0,0,0,6.13-34.58V173.68A19.64,19.64,0,0,0,200,168.63Zm-53.92,59.65c-.92,24.56-21.84,44.52-46.4,44.32a46.11,46.11,0,0,1-45.55-42.31v1.4c-.08-.8-.08-1.65-.08-2.44s-.07-1.81-.07-2.74,0-1.79.07-2.72,0-1.63.08-2.44v1.41a46.07,46.07,0,0,1,53.39-41.7,46.07,46.07,0,0,1,38.56,47.22Z"/><path class="cls-1" d="M628.21,128.83h41.06a4.82,4.82,0,0,1,4.82,4.82V304.71a22.94,22.94,0,0,1-22.94,22.94h0a22.94,22.94,0,0,1-22.94-22.94V128.83a0,0,0,0,1,0,0Z"/><path class="cls-2" d="M681.68,50.88c0,.53,0,1.07,0,1.6A30.58,30.58,0,0,1,677.73,66l-.29.51-20,34.71a7.61,7.61,0,0,1-13.18,0l-20-34.71-.29-.51A30.58,30.58,0,0,1,620,52.48c0-.53,0-1.07,0-1.6a30.87,30.87,0,0,1,61.74,0Z"/></g></g></svg>
