<svg xmlns="http://www.w3.org/2000/svg" xmlns:xlink="http://www.w3.org/1999/xlink" viewBox="0 0 24 24"><defs><style>.cls-1{fill:url(#linear-gradient);}.cls-2{fill:#fff;}</style><linearGradient id="linear-gradient" x1="0.87" y1="0.51" x2="22.85" y2="23.2" gradientUnits="userSpaceOnUse"><stop offset="0" stop-color="#390099"/><stop offset="1" stop-color="#8816ff"/></linearGradient></defs><g id="Layer_2" data-name="Layer 2"><g id="Layer_1-2" data-name="Layer 1"><rect class="cls-1" width="24" height="24"/><path class="cls-2" d="M16.28,12.4v2.32A4.28,4.28,0,0,1,14,18.5h0a4.33,4.33,0,0,1-4.53-.28,4.33,4.33,0,0,1-1.52-2,4,4,0,0,1-.25-1,2.71,2.71,0,0,1,0-.29V6.15a1,1,0,0,1,.06-.36A1.14,1.14,0,0,1,8.88,5a1.16,1.16,0,0,1,.82.34,1,1,0,0,1,.28.46A1.17,1.17,0,0,1,10,6a.81.81,0,0,1,0,.16v4h0a.74.74,0,0,1,.12-.13l.13-.1a1.41,1.41,0,0,1,.78-.24,1.28,1.28,0,0,1,1.27,1,1.28,1.28,0,0,1,.79-.27,1.51,1.51,0,0,1,.48.09h0a1.36,1.36,0,0,1,.81.95,1.3,1.3,0,0,1,.6-.15,1.27,1.27,0,0,1,1.18.81v.07a.08.08,0,0,1,0,0A.78.78,0,0,1,16.28,12.4Z"/></g></g></svg>